Coordinates
version=1
nRows=5
nColumns=40
inDegrees=yes

Units are S.I. units (second, meters, Newtons, ...)
Angles are in degrees.

endheader
time	pelvis_tilt	pelvis_list	pelvis_rotation	pelvis_tx	pelvis_ty	pelvis_tz	hip_flexion_r	hip_adduction_r	hip_rotation_r	knee_angle_r	knee_angle_r_beta	ankle_angle_r	subtalar_angle_r	mtp_angle_r	hip_flexion_l	hip_adduction_l	hip_rotation_l	knee_angle_l	knee_angle_l_beta	ankle_angle_l	subtalar_angle_l	mtp_angle_l	lumbar_extension	lumbar_bending	lumbar_rotation	arm_flex_r	arm_add_r	arm_rot_r	elbow_flex_r	pro_sup_r	wrist_flex_r	wrist_dev_r	arm_flex_l	arm_add_l	arm_rot_l	elbow_flex_l	pro_sup_l	wrist_flex_l	wrist_dev_l
     46.67500000	     -2.86481252	     -4.34055449	      5.15023342	      1.03225951	      0.92679592	      0.45744307	      3.43328630	     -2.51253592	    -15.89684655	     26.80340216	     26.80340216	     15.76656959	     -3.20023736	     -5.93224415	     23.41430283	     -5.82710899	     -1.69508258	     25.24889466	     25.24889466	      7.93995223	    -12.52136303	      2.91670178	     -8.81157818	      4.57716360	      3.90131047	     22.58029825	    -18.96760090	     -3.08682917	     71.21552916	     45.55831786	      0.00000000	      0.00000000	      2.13608647	     -8.94824011	     -8.43813805	     31.32658593	     46.24863480	      0.00000000	      0.00000000
     46.68857143	     -2.80862420	     -4.20971076	      4.86277133	      1.03206633	      0.92728141	      0.45405585	      4.91442489	     -3.38698520	    -15.17202302	     30.21960133	     30.21960133	     14.79486913	     -4.61698371	     -7.08285222	     22.85653844	     -5.61502764	     -2.16250233	     25.22095990	     25.22095990	      8.36293937	    -12.43534688	      2.67866622	     -8.89668470	      4.46036038	      3.85239650	     21.31836917	    -18.92601913	     -2.38230568	     69.29236764	     45.58963707	      0.00000000	      0.00000000	      2.86347622	     -9.03805667	     -8.25944543	     31.80409778	     46.23420219	      0.00000000	      0.00000000
     46.70214286	     -2.73608551	     -4.20144705	      4.60853346	      1.03183083	      0.92768020	      0.45085908	      6.33728060	     -3.96315865	    -14.19140202	     33.23092423	     33.23092423	     11.82796195	     -7.51906903	    -12.58823114	     22.31567106	     -5.53963408	     -2.55170361	     25.21141982	     25.21141982	      8.71102071	    -12.26506734	      2.09887943	     -8.85654072	      4.43809428	      2.70003953	     21.80112634	    -18.32404452	      0.42377931	     64.03601093	     45.64509959	      0.00000000	      0.00000000	      2.60032451	     -9.62927119	     -6.89348428	     33.15147986	     46.04993051	      0.00000000	      0.00000000
     46.71571429	     -2.64563697	     -4.03939110	      4.32270479	      1.03149191	      0.92798343	      0.44762673	      8.11173581	     -4.88616017	    -13.44330339	     37.09426172	     37.09426172	     10.48536798	     -8.81593862	    -13.19977164	     21.72457516	     -5.29814876	     -3.00243134	     25.18281444	     25.18281444	      9.13813865	    -12.10037672	      1.84064484	     -9.02794634	      4.29365038	      2.76694180	     20.13989719	    -18.33693891	      0.83020163	     62.80633946	     45.66087025	      0.00000000	      0.00000000	      3.39092114	     -9.73578485	     -6.85669192	     33.82625082	     46.06018684	      0.00000000	      0.00000000
     46.72928571	     -2.58699650	     -3.97387548	      4.04729879	      1.03106847	      0.92812456	      0.44463821	     10.01200349	     -5.55166695	    -12.45992957	     40.90983409	     40.90983409	      8.62907801	    -10.70865382	    -13.87828637	     21.25015528	     -5.17891727	     -3.43500078	     25.25867209	     25.25867209	      9.53970425	    -11.89083584	      1.48027989	     -9.11571745	      4.22545866	      2.88511234	     18.58936744	    -18.35107315	      1.36179217	     60.83410011	     45.69575147	      0.00000000	      0.00000000	      4.17640426	     -9.86689713	     -6.63736489	     34.66523041	     46.04903102	      0.00000000	      0.00000000
